<svg xmlns="http://www.w3.org/2000/svg" version="1.1" xmlns:xlink="http://www.w3.org/1999/xlink" viewBox="0 0 200 200"><rect width="200" height="200" fill="url('#gradient')"></rect><defs><linearGradient id="gradient" gradientTransform="rotate(45 0.5 0.5)"><stop offset="0%" stop-color="#bac1e3"></stop><stop offset="100%" stop-color="#ffebee"></stop></linearGradient></defs><g><g fill="#3f64ad" transform="matrix(3.833588188768785,0,0,3.833588188768785,29.11574756306989,127.24201778408849)" stroke="#5aa3a6" stroke-width="0"><path d="M3.65-14.22L6.28-8.05L8.90-14.22L12.60-14.22L8.02-5.11L8.02 0L4.54 0L4.54-5.11L-0.03-14.22L3.65-14.22ZM24.96-14.22L24.96-11.57L20.69-11.57L20.69 0L17.27 0L17.27-11.57L13.08-11.57L13.08-14.22L24.96-14.22ZM33.58-3.78L33.58-3.78Q33.58-4.53 33.05-4.95Q32.52-5.37 31.18-5.82Q29.84-6.27 28.99-6.69L28.99-6.69Q26.23-8.05 26.23-10.42L26.23-10.42Q26.23-11.60 26.92-12.50Q27.61-13.41 28.87-13.91Q30.13-14.41 31.70-14.41L31.70-14.41Q33.23-14.41 34.45-13.87Q35.66-13.32 36.34-12.31Q37.01-11.30 37.01-10L37.01-10L33.59-10Q33.59-10.87 33.06-11.35Q32.53-11.83 31.62-11.83L31.62-11.83Q30.70-11.83 30.17-11.42Q29.64-11.02 29.64-10.39L29.64-10.39Q29.64-9.84 30.22-9.40Q30.81-8.96 32.29-8.48Q33.76-8.01 34.71-7.46L34.71-7.46Q37.01-6.13 37.01-3.80L37.01-3.80Q37.01-1.93 35.61-0.87Q34.20 0.20 31.75 0.20L31.75 0.20Q30.02 0.20 28.62-0.42Q27.22-1.04 26.51-2.12Q25.80-3.20 25.80-4.61L25.80-4.61L29.24-4.61Q29.24-3.47 29.83-2.92Q30.42-2.38 31.75-2.38L31.75-2.38Q32.60-2.38 33.09-2.75Q33.58-3.12 33.58-3.78Z"></path></g></g></svg>